<?xml version="1.0" encoding="utf-8"?>
<!-- Svg Vector Icons : http://www.onlinewebfonts.com/icon -->
<!DOCTYPE svg PUBLIC "-//W3C//DTD SVG 1.1//EN" "http://www.w3.org/Graphics/SVG/1.1/DTD/svg11.dtd">
<svg version="1.1" xmlns="http://www.w3.org/2000/svg" xmlns:xlink="http://www.w3.org/1999/xlink" x="0px" y="0px" viewBox="0 0 1000 1000" enable-background="new 0 0 1000 1000" xml:space="preserve">
<metadata> Svg Vector Icons : http://www.onlinewebfonts.com/icon </metadata>
<g><g transform="translate(0.000000,512.000000) scale(0.100000,-0.100000)"><path d="M4622.6,5016.9c-693.8-70.9-1213.2-214.7-1782.4-494.5c-500.2-245.3-856.7-498.3-1263-891.2c-417.8-408.2-722.6-828-981.3-1353.1c-241.5-494.5-389.1-979.4-471.5-1552.4c-32.6-226.2-32.6-981.3,0-1207.5c136.1-950.6,504.1-1803.5,1082.9-2506.9c1353.1-1642.5,3595.5-2229,5571.5-1458.5C8043.7-3952.7,9071-2923.5,9569.3-1650.9C9772.5-1127.7,9876-625.6,9897-41c46,1326.3-446.6,2604.6-1374.2,3562.9c-421.7,435.1-833.7,736-1370.4,998.5c-483,237.7-927.6,377.6-1466.2,460C5492.8,5009.2,4789.4,5034.1,4622.6,5016.9z M5638.4,4675.7c994.7-147.6,1908.9-605.6,2608.4-1307.1C8971.3,2640.3,9416,1733.8,9559.7,696.9c15.4-101.6,26.8-354.6,26.8-575c0-414-21.1-613.3-97.7-977.5c-107.3-506-368-1121.2-655.5-1552.4c-749.4-1123.1-1910.8-1847.6-3262-2033.5c-235.7-34.5-914.2-34.5-1150,0c-724.5,99.6-1389.5,348.8-1974.1,739.8C1343.4-2963.8,618.9-1796.6,431.1-453.1c-32.6,237.7-32.6,933.4,1.9,1159.5c220.4,1508.3,1075.2,2750.3,2378.5,3459.4c557.7,302.8,1082.9,458.1,1839.9,544.3C4791.3,4725.5,5454.4,4702.5,5638.4,4675.7z"/><path d="M3961.4,3035.1v-460h-594.1h-594.1v-276v-276l283.6-7.7c325.8-7.7,377.6-24.9,435.1-139.9c38.3-74.7,38.3-115,38.3-1753.7c0-1542.9-1.9-1682.8-32.6-1749.8c-49.8-109.2-124.6-132.2-450.4-143.7l-274.1-9.6v-274.1v-276h594.1h594.1v-460v-460h306.7h306.7v460v460H4843h268.3v-460v-460H5418h306.7v460v460l44.1,7.7c23,5.8,120.8,13.4,214.7,21.1c736,46,1215.1,274.1,1408.7,668.9c95.8,195.5,134.2,368,134.2,624.8c0,249.2-36.4,429.3-122.7,605.7c-149.5,300.9-504.1,550.1-918,640.1c-61.3,15.3-103.5,30.7-95.8,38.3c7.7,7.7,63.2,28.8,120.7,46c283.6,90.1,538.5,258.7,655.5,437c203.2,304.7,224.2,791.5,49.8,1146.1c-72.8,147.6-247.2,329.7-398.6,415.9c-210.8,120.7-557.7,208.9-962.1,245.3l-130.3,13.4V3037v458.1H5418h-306.7v-460v-460H4843h-268.3v460v460h-306.7h-306.7V3035.1z M5766.8,1965.7c197.4-53.7,283.7-99.7,377.6-207c116.9-134.2,162.9-299,151.4-550c-9.6-230-51.8-345-172.5-467.6C5947,560.8,5709.3,505.2,5050,491.8l-475.3-11.5v772.4v770.5l523.2-9.6C5542.6,2005.9,5640.3,1998.2,5766.8,1965.7z M5600.1-88.9c448.5-51.8,668.9-172.5,787.7-431.2c63.3-136.1,90.1-364.2,65.2-553.9c-34.5-276-155.2-460-368-569.2c-207-105.4-297.1-116.9-929.5-126.5l-580.7-9.6v854.8v854.8h427.4C5235.9-69.8,5506.2-79.3,5600.1-88.9z"/></g></g>
</svg>